<?xml version="1.0" encoding="UTF-8"?>
<svg version="1.1" xmlns="http://www.w3.org/2000/svg" width="500" height="500">
<path d="M0 0 C165 0 330 0 500 0 C500 165 500 330 500 500 C335 500 170 500 0 500 C0 335 0 170 0 0 Z " fill="#EAE5E3" transform="translate(0,0)"/>
<path d="M0 0 C26.73 0 53.46 0 81 0 C84.43399328 10.30197983 87.77752278 20.45716472 90.7890625 30.86328125 C91.95083047 34.86399108 93.18353289 38.83986461 94.4375 42.8125 C96.29794681 48.7152368 98.10300891 54.63260856 99.875 60.5625 C102.91785342 70.74465807 106.00943403 80.9116064 109.10888672 91.07666016 C110.57427248 95.88392841 112.03701603 100.69200038 113.5 105.5 C114.08332038 107.41667061 114.66665372 109.33333727 115.25 111.25 C118.75 122.75 118.75 122.75 119.6237793 125.62109375 C120.21110403 127.55080487 120.79850721 129.48049212 121.38598633 131.41015625 C122.78387396 136.00205682 124.18071685 140.59426645 125.57421875 145.1875 C128.34224238 154.30519694 131.1261356 163.4178056 133.93359375 172.5234375 C134.32538063 173.79462433 134.32538063 173.79462433 134.7250824 175.0914917 C136.03163677 179.33033198 137.33938105 183.56879868 138.64916992 187.80664062 C141.26075415 196.2683935 143.83290414 204.73919129 146.30703735 213.24227905 C148.01727094 219.11175512 149.84480767 224.94055689 151.6875 230.76953125 C152.63684418 233.79952141 153.54649351 236.83907156 154.4375 239.88671875 C160.51609282 264.97028209 160.51609282 264.97028209 176.23828125 284.07421875 C182.98779226 287.6210793 190.5420239 287.57382994 198 288 C198 289.65 198 291.3 198 293 C159.39 293 120.78 293 81 293 C81 291.35 81 289.7 81 288 C82.01578125 287.96261719 83.0315625 287.92523438 84.078125 287.88671875 C100.67565216 287.39294962 100.67565216 287.39294962 115 280 C120.67900322 270.46201146 118.45639689 259.49324476 115.875 249.25 C113.7092665 241.04469219 111.18685993 232.94998627 108.5703125 224.87890625 C106.98320013 219.9796019 105.48656013 215.05558397 104 210.125 C100.67021013 199.13091018 97.27465944 188.15730845 93.8684082 177.18670654 C93.25706154 175.21706561 92.64636379 173.24722313 92.03637695 171.27716064 C88.79529135 160.81240167 85.48652287 150.38003632 81.98872375 139.99812317 C80.19995609 134.66535029 78.59336033 129.30516273 77.125 123.875 C74.98310237 116.16416852 72.57424358 108.57695007 70 101 C67.46786398 93.54644869 65.10169514 86.086325 63 78.5 C60.56042537 69.69932305 57.76092925 61.04929541 54.82250977 52.40307617 C53.06608371 47.23191765 51.4150324 42.06947149 49.9375 36.8125 C47.91445549 30.02019673 44.55469765 24.10089962 41 18 C38.7354486 21.3968271 37.72681821 24.7528872 36.58569336 28.62084961 C36.35292191 29.39514816 36.12015045 30.16944672 35.88032532 30.96720886 C35.11198547 33.52749723 34.3508617 36.0898704 33.58984375 38.65234375 C33.05742616 40.43221727 32.52458853 42.21196519 31.99134827 43.99159241 C30.58819642 48.67898573 29.19127281 53.36821388 27.79547119 58.05780029 C26.65539063 61.88437359 25.51088746 65.70961702 24.36614132 69.53479671 C23.00171238 74.0943655 21.6392429 78.65451878 20.27734375 83.21484375 C20.01728987 84.08546888 19.75723598 84.95609402 19.48930168 85.85310173 C18.75345918 88.31834286 18.0189398 90.78397384 17.28491211 93.24975586 C17.06723175 93.9787207 16.84955139 94.70768555 16.62527466 95.45874023 C15.68425023 98.6246705 14.75779484 101.78459191 14 105 C12.68 104.67 11.36 104.34 10 104 C10.36237139 98.08126722 11.91559813 92.98021262 13.85473633 87.38842773 C15.71573437 81.97384382 17.32825925 76.51196553 18.875 71 C20.99934124 63.45214596 23.20652545 55.93573704 25.5 48.4375 C25.7892334 47.48697754 26.0784668 46.53645508 26.37646484 45.55712891 C27.82992662 40.78889684 29.30461335 36.02865541 30.8125 31.27734375 C31.09673828 30.36734619 31.38097656 29.45734863 31.67382812 28.51977539 C32.20988718 26.80372108 32.75494135 25.09044102 33.31054688 23.38061523 C35.15509809 17.70607411 35.15509809 17.70607411 34 12 C24.41008827 4.91459647 10.32535379 5.49410269 -1 5 C-0.67 3.35 -0.34 1.7 0 0 Z " fill="#2E2D2D" transform="translate(190,82)"/>
<path d="M0 0 C1.32 0 2.64 0 4 0 C3.34955776 3.57682671 2.43548969 6.9445957 1.29296875 10.39453125 C0.95523438 11.42449219 0.6175 12.45445312 0.26953125 13.515625 C-0.08753906 14.60359375 -0.44460937 15.6915625 -0.8125 16.8125 C-7.07741612 35.5534032 -7.07741612 35.5534032 -9.4375 55.0625 C-9.4478125 55.7534375 -9.458125 56.444375 -9.46875 57.15625 C-9.35827107 63.45354874 -7.76072297 68.06320473 -3.5 72.75 C5.56451875 79.43838277 18.25606308 78.65723414 29 79 C29 80.65 29 82.3 29 84 C1.94 84 -25.12 84 -53 84 C-53 82.35 -53 80.7 -53 79 C-51.54980469 78.88785156 -51.54980469 78.88785156 -50.0703125 78.7734375 C-40.69927528 77.82705552 -32.86542986 76.44752418 -26.26953125 69.0625 C-13.71655473 51.50769479 -8.18203319 28.05547475 -2.75854492 7.56103516 C-1.98911991 4.96326614 -1.04500934 2.49823863 0 0 Z " fill="#373636" transform="translate(167,291)"/>
<path d="M0 0 C0.99 0.33 1.98 0.66 3 1 C3.625 4.375 3.625 4.375 4 8 C3.34 8.66 2.68 9.32 2 10 C1.19404316 12.30429906 1.19404316 12.30429906 0.55078125 14.98046875 C0.29377441 15.97095215 0.03676758 16.96143555 -0.22802734 17.98193359 C-0.48277832 18.97789551 -0.7375293 19.97385742 -1 21 C-1.46138456 22.70536673 -1.92609282 24.40983861 -2.39453125 26.11328125 C-3.12840043 28.80190873 -3.86082973 31.49089334 -4.58959961 34.1809082 C-5.87555177 38.91984377 -7.18045373 43.65077412 -8.546875 48.3671875 C-15.68160078 72.32226879 -15.68160078 72.32226879 -18 97 C-10.65392499 87.46379083 -4.3659762 77.26198539 2.04980469 67.09130859 C36.32316074 12.76366283 36.32316074 12.76366283 52 0 C53.32 0 54.64 0 56 0 C55 3 55 3 52.875 4.25 C46.1698747 8.33138062 41.35432899 14.80010294 36.6875 21 C36.12554932 21.7420166 35.56359863 22.4840332 34.98461914 23.24853516 C29.68667774 30.30794237 24.75427812 37.56620345 20 45 C19.55366211 45.69754395 19.10732422 46.39508789 18.64746094 47.11376953 C13.77762269 54.74679259 8.97152808 62.41857239 4.21875 70.125 C-11.40401108 95.40401108 -11.40401108 95.40401108 -18 102 C-20.125 101.625 -20.125 101.625 -22 101 C-22.34777219 93.60526502 -21.05132533 86.7408079 -19.625 79.5 C-19.49772522 78.84514618 -19.37045044 78.19029236 -19.23931885 77.51559448 C-15.88756998 60.36794064 -11.51957159 43.46170758 -7.16308594 26.54736328 C-6.38591999 23.52320921 -5.62377455 20.49590452 -4.87597656 17.46435547 C-4.69761261 16.74219345 -4.51924866 16.02003143 -4.33547974 15.27598572 C-3.85465205 13.32306651 -3.37667892 11.3694451 -2.89892578 9.41577148 C-2.05843773 6.22205385 -1.08342225 3.11864439 0 0 Z " fill="#8F7F73" transform="translate(190,186)"/>
<path d="M0 0 C-0.33 4.62 -0.66 9.24 -1 14 C4.59865655 12.79244663 7.02767871 11.31280597 11 7 C11.66 7 12.32 7 13 7 C11.43187242 11.23394447 8.65398002 13.47032152 5 16 C1.75 16.4375 1.75 16.4375 -1 16 C-3.46278801 13.53721199 -3.99771255 11.29323018 -5 8 C-5.45890625 8.5053125 -5.9178125 9.010625 -6.390625 9.53125 C-7.00421875 10.1809375 -7.6178125 10.830625 -8.25 11.5 C-8.85328125 12.1496875 -9.4565625 12.799375 -10.078125 13.46875 C-12 15 -12 15 -16 15 C-15.33181769 9.32045039 -12.60693764 5.60693764 -8.625 1.625 C-6 0 -6 0 0 0 Z " fill="#998A7F" transform="translate(264,246)"/>
<path d="M0 0 C0.703125 2.21484375 0.703125 2.21484375 1 5 C-0.328125 7.31640625 -0.328125 7.31640625 -2.25 9.5625 C-2.87390625 10.30628906 -3.4978125 11.05007813 -4.140625 11.81640625 C-4.75421875 12.53699219 -5.3678125 13.25757813 -6 14 C-7.00979791 15.32592834 -8.01320594 16.65686365 -9 18 C-10.65 17.67 -12.3 17.34 -14 17 C-13.97114138 10.63667421 -12.8634748 6.97302485 -8.47265625 2.3125 C-5.68641685 -0.17072663 -3.62403749 -0.09536941 0 0 Z " fill="#908075" transform="translate(218,245)"/>
<path d="M0 0 C0.66 0 1.32 0 2 0 C0.80100302 3.0831351 -0.47700477 6.06279492 -2 9 C-1.360625 8.443125 -0.72125 7.88625 -0.0625 7.3125 C6.55353717 2.31671683 11.56593512 -0.76673317 20 0 C20.495 1.98 20.495 1.98 21 4 C20.34 4 19.68 4 19 4 C19 3.01 19 2.02 19 1 C11.06013711 2.77379916 5.37691043 6.01321191 -1 11 C-1.60070312 11.45890625 -2.20140625 11.9178125 -2.8203125 12.390625 C-6.02605864 14.93589078 -8.56317539 17.71965918 -11 21 C-11.66 20.67 -12.32 20.34 -13 20 C-11.02295803 16.85282661 -9.04301224 13.7074905 -7.0625 10.5625 C-6.49853516 9.66466797 -5.93457031 8.76683594 -5.35351562 7.84179688 C-4.54624023 6.56079102 -4.54624023 6.56079102 -3.72265625 5.25390625 C-3.22515869 4.46314697 -2.72766113 3.6723877 -2.21508789 2.85766602 C-1 1 -1 1 0 0 Z " fill="#8E7F73" transform="translate(230,245)"/>
<path d="M0 0 C-0.33 1.98 -0.66 3.96 -1 6 C-2.32 5.67 -3.64 5.34 -5 5 C-4.67 4.34 -4.34 3.68 -4 3 C-7.45195767 4.4258086 -9.1014256 6.09746334 -11.25 9.125 C-11.77078125 9.84945312 -12.2915625 10.57390625 -12.828125 11.3203125 C-13.21484375 11.87460937 -13.6015625 12.42890625 -14 13 C-11.69 11.35 -9.38 9.7 -7 8 C-8.28207359 10.86001033 -9.49151236 13.07039412 -12 15 C-13.32 15 -14.64 15 -16 15 C-15.33181769 9.32045039 -12.60693764 5.60693764 -8.625 1.625 C-5.50153901 -0.30857109 -3.60914402 -0.33573433 0 0 Z " fill="#928378" transform="translate(264,246)"/>
<path d="M0 0 C0.33 1.32 0.66 2.64 1 4 C0.34 4 -0.32 4 -1 4 C-1 3.01 -1 2.02 -1 1 C-8.9539422 2.77694454 -14.55922131 6.09555384 -21 11 C-21.99 11.66 -22.98 12.32 -24 13 C-24.33 12.01 -24.66 11.02 -25 10 C-23.94232422 9.37158203 -23.94232422 9.37158203 -22.86328125 8.73046875 C-20.94802586 7.57295423 -19.0493164 6.38762863 -17.16796875 5.17578125 C-11.15211536 1.41488732 -7.14232034 -0.9614662 0 0 Z " fill="#95867B" transform="translate(250,245)"/>
<path d="M0 0 C-0.34013015 5.44208234 -3.70296528 8.93668198 -7 13 C-7.66 12.67 -8.32 12.34 -9 12 C-8.01 10.68 -7.02 9.36 -6 8 C-6.33 7.67 -6.66 7.34 -7 7 C-7.99 7.495 -7.99 7.495 -9 8 C-7.13554727 3.64961029 -5.02378599 0 0 0 Z " fill="#DED7D4" transform="translate(217,246)"/>
<path d="M0 0 C0.99 0.33 1.98 0.66 3 1 C1.92492371 2.29854721 0.83956264 3.58858361 -0.25 4.875 C-0.85328125 5.59429687 -1.4565625 6.31359375 -2.078125 7.0546875 C-3.97087634 8.97052118 -5.53657727 9.96449045 -8 11 C-6.52670958 5.99081256 -3.72484762 3.48192278 0 0 Z " fill="#E0DAD7" transform="translate(258,248)"/>
<path d="M0 0 C0.703125 1.7109375 0.703125 1.7109375 1 4 C-0.328125 6.2890625 -0.328125 6.2890625 -2.25 8.625 C-2.87390625 9.40101563 -3.4978125 10.17703125 -4.140625 10.9765625 C-6 13 -6 13 -9 15 C-9.66 14.34 -10.32 13.68 -11 13 C-9.86498047 12.41798828 -9.86498047 12.41798828 -8.70703125 11.82421875 C-5.65620214 9.76832092 -4.46780746 8.00049242 -2.6875 4.8125 C-2.17574219 3.91144531 -1.66398438 3.01039063 -1.13671875 2.08203125 C-0.76160156 1.39496094 -0.38648438 0.70789063 0 0 Z " fill="#96887D" transform="translate(218,246)"/>
<path d="M0 0 C0.99 0.33 1.98 0.66 3 1 C2.67 3.64 2.34 6.28 2 9 C1.01 9 0.02 9 -1 9 C-0.67 6.03 -0.34 3.06 0 0 Z " fill="#96877C" transform="translate(170,269)"/>
<path d="M0 0 C0.33 0.66 0.66 1.32 1 2 C1.66 2.33 2.32 2.66 3 3 C2.67 4.98 2.34 6.96 2 9 C1.01 9 0.02 9 -1 9 C-0.67 6.03 -0.34 3.06 0 0 Z " fill="#97897E" transform="translate(174,248)"/>
<path d="M0 0 C1.32 0 2.64 0 4 0 C3.67 1.98 3.34 3.96 3 6 C1.68 5.67 0.36 5.34 -1 5 C-0.67 3.35 -0.34 1.7 0 0 Z " fill="#8D7D71" transform="translate(260,246)"/>
<path d="M0 0 C0.99 0.33 1.98 0.66 3 1 C0.38485683 3.12038635 -2.19637616 5.13091744 -5 7 C-5 6.01 -5 5.02 -5 4 C-2.6875 1.75 -2.6875 1.75 0 0 Z " fill="#97897E" transform="translate(258,246)"/>
<path d="M0 0 C0.33 0.66 0.66 1.32 1 2 C1.66 2 2.32 2 3 2 C2.67 4.31 2.34 6.62 2 9 C1.01 8.67 0.02 8.34 -1 8 C-0.67 5.36 -0.34 2.72 0 0 Z " fill="#94857A" transform="translate(177,235)"/>
</svg>
